<?xml version="1.0" encoding="utf-8"?>
<!-- Generator: Adobe Illustrator 15.0.0, SVG Export Plug-In . SVG Version: 6.00 Build 0)  -->
<!DOCTYPE svg PUBLIC "-//W3C//DTD SVG 1.1//EN" "http://www.w3.org/Graphics/SVG/1.1/DTD/svg11.dtd">
<svg version="1.1" id="Layer_1" xmlns="http://www.w3.org/2000/svg" xmlns:xlink="http://www.w3.org/1999/xlink" x="0px" y="0px"
	 width="610.828px" height="81.146px" viewBox="0 0 610.828 81.146" enable-background="new 0 0 610.828 81.146"
	 xml:space="preserve">
<g>
	<g>
		<path fill="#AB1917" d="M22.829,48.993h2.55l2.979,18.021h-1.997l-0.513-3.439h-3.267l-0.471,3.439h-2.018L22.829,48.993z
			 M22.819,61.854h2.765l-1.423-9.521h-0.032L22.819,61.854z"/>
		<path fill="#AB1917" d="M30.304,56.694c0-1.332,0.101-2.307,0.302-2.926c0.201-0.613,0.429-1.068,0.681-1.355
			c0.553-0.627,1.365-0.938,2.438-0.938c1.071,0,1.844,0.266,2.313,0.797c0.464,0.535,0.751,1.326,0.861,2.375
			c0.041,0.451,0.063,0.983,0.07,1.606v1.064h-2.067v-1.349c0-0.956-0.038-1.586-0.113-1.875c-0.272-0.438-0.6-0.715-0.982-0.821
			c-0.67,0-1.083,0.338-1.239,1.008c-0.103,0.42-0.154,1.006-0.154,1.748v6.533c0,1.049,0.081,1.787,0.241,2.207
			c0.16,0.418,0.47,0.629,0.927,0.629s0.792-0.148,1.004-0.447c0.21-0.295,0.317-1.078,0.317-2.346v-1.488h2.067v0.994
			c0,2.094-0.275,3.467-0.83,4.117c-0.553,0.646-1.396,0.973-2.528,0.973c-1.789,0-2.836-0.957-3.145-2.869
			c-0.108-0.699-0.163-1.533-0.163-2.498V56.694L30.304,56.694z"/>
		<path fill="#AB1917" d="M39.53,56.1c0-1.857,0.29-3.095,0.87-3.707c0.581-0.615,1.405-0.918,2.478-0.918
			c1.073,0,1.85,0.258,2.33,0.772c0.481,0.521,0.776,1.354,0.886,2.498c0.047,0.492,0.071,1.096,0.071,1.814v10.45h-2.109v-1.329
			c-0.108,0.37-0.348,0.707-0.716,1.012c-0.369,0.303-0.827,0.453-1.372,0.453c-1.74,0-2.618-1.359-2.632-4.076v-1.49
			c0-0.881,0.241-1.635,0.721-2.26c0.481-0.627,1.813-1.34,3.988-2.137v-1.188c0-1.318-0.095-2.109-0.286-2.377
			c-0.19-0.266-0.517-0.397-0.978-0.397c-0.461,0-0.771,0.2-0.927,0.604c-0.157,0.4-0.236,1.129-0.236,2.178v0.535H39.53V56.1z
			 M44.045,58.548c-0.858,0.39-1.433,0.689-1.72,0.9c-0.287,0.211-0.503,0.459-0.65,0.74c-0.146,0.283-0.22,0.75-0.22,1.397v1.424
			c0,0.896,0.078,1.525,0.235,1.89c0.156,0.365,0.427,0.549,0.809,0.549s0.71-0.109,0.984-0.334c0.271-0.219,0.46-0.459,0.562-0.721
			V58.548L44.045,58.548z"/>
		<path fill="#AB1917" d="M53.527,48.798h2.108v18.22h-2.108v-1.289c-0.382,0.944-1.088,1.424-2.119,1.424
			c-1.413,0-2.242-0.935-2.488-2.797c-0.083-0.619-0.123-1.369-0.123-2.25v-5.812c0-1.85,0.3-3.153,0.9-3.922
			c0.479-0.6,1.154-0.896,2.027-0.896c0.383,0,0.736,0.106,1.062,0.338c0.323,0.223,0.571,0.514,0.741,0.867V48.798z M53.538,56.266
			c0-1.08-0.091-1.855-0.271-2.326c-0.181-0.476-0.529-0.703-1.044-0.703c-0.516,0-0.863,0.234-1.045,0.711
			c-0.181,0.473-0.271,1.264-0.271,2.367v6.207c0,1.504,0.198,2.408,0.594,2.725c0.164,0.131,0.396,0.193,0.697,0.193
			c0.3,0,0.545-0.084,0.737-0.244c0.401-0.342,0.604-1.264,0.604-2.771L53.538,56.266L53.538,56.266z"/>
		<path fill="#AB1917" d="M58.402,56.419c0-1.938,0.348-3.289,1.044-4.047c0.546-0.6,1.352-0.896,2.417-0.896
			c1.543,0,2.512,0.666,2.908,1.989c0.218,0.757,0.327,1.769,0.327,3.043v2.898h-4.587v3.063c0,1.33,0.106,2.16,0.318,2.488
			c0.211,0.324,0.545,0.488,1.003,0.488s0.763-0.188,0.917-0.572c0.154-0.379,0.234-0.797,0.24-1.244
			c0.007-0.444,0.01-0.823,0.01-1.133V61.26h2.058v0.656c0,1.629-0.113,2.771-0.342,3.431c-0.229,0.655-0.576,1.129-1.04,1.42
			c-0.464,0.291-1.039,0.434-1.725,0.434c-0.687,0-1.235-0.088-1.648-0.262c-0.413-0.172-0.739-0.402-0.981-0.689
			c-0.242-0.287-0.456-0.746-0.642-1.373c-0.184-0.629-0.275-1.639-0.275-3.026L58.402,56.419L58.402,56.419z M62.999,56.028
			c0-1.092-0.039-1.748-0.118-1.978c-0.078-0.225-0.179-0.424-0.302-0.596c-0.122-0.168-0.345-0.258-0.666-0.258
			c-0.614,0-1.003,0.258-1.167,0.775c-0.164,0.514-0.246,1.223-0.246,2.122v1.886h2.498L62.999,56.028L62.999,56.028z"/>
		<path fill="#AB1917" d="M69.88,53.251c0.145-0.518,0.427-0.94,0.851-1.285c0.423-0.336,0.938-0.504,1.546-0.504
			c1.08,0,1.803,0.521,2.172,1.562c0.259-0.48,0.612-0.859,1.06-1.142c0.446-0.278,0.96-0.42,1.541-0.42
			c0.813,0,1.431,0.289,1.854,0.871c0.423,0.578,0.635,1.435,0.635,2.56v12.125H77.44V54.831c0-1.041-0.41-1.559-1.229-1.559
			c-0.929,0-1.427,0.477-1.495,1.424v12.316h-2.108V54.819c0-1.029-0.403-1.547-1.209-1.547c-0.491,0-0.867,0.16-1.125,0.477
			c-0.261,0.32-0.391,0.754-0.391,1.306v11.963h-2.099v-15.36h2.099v1.596H69.88V53.251z"/>
		<path fill="#AB1917" d="M86.653,51.655h2.027l-2.55,15.658c-0.123,0.852-0.278,1.405-0.471,1.668
			c-0.19,0.258-0.402,0.426-0.635,0.496c-0.233,0.069-0.536,0.104-0.911,0.104h-2.059v-1.584h0.728c0.717,0,1.112-0.084,1.188-0.248
			c0.062-0.076,0.092-0.219,0.092-0.438c0-0.222-0.027-0.502-0.081-0.843l-2.509-14.815h2.037l1.106,7.986l0.451,4.155h0.184
			l0.399-4.155L86.653,51.655z"/>
		<path fill="#AB1917" d="M95.46,56.499c0-2.488,0.573-4.043,1.72-4.658c0.465-0.241,1.003-0.364,1.618-0.364
			c1.604,0,2.629,0.645,3.072,1.934c0.272,0.814,0.41,1.842,0.41,3.092v5.439c0,2.156-0.291,3.572-0.871,4.246
			c-0.581,0.678-1.42,1.016-2.519,1.016c-1.604,0-2.626-0.684-3.062-2.047c-0.247-0.785-0.369-1.859-0.369-3.215L95.46,56.499
			L95.46,56.499z M100.169,56.079c0-1.459-0.208-2.348-0.625-2.664c-0.17-0.125-0.393-0.19-0.666-0.19
			c-0.553,0-0.91,0.248-1.07,0.75c-0.159,0.498-0.24,1.198-0.24,2.104v6.439c0,1.51,0.211,2.422,0.635,2.731
			c0.171,0.133,0.382,0.195,0.635,0.195c0.015,0,0.027,0,0.041,0c0.539,0,0.889-0.254,1.05-0.764c0.16-0.509,0.24-1.23,0.24-2.164
			V56.079L100.169,56.079z"/>
		<path fill="#AB1917" d="M105.596,51.503c0-1.85,0.791-2.772,2.375-2.772c0.587,0,1.096,0.067,1.526,0.215v1.465
			c-0.273-0.041-0.57-0.063-0.891-0.063s-0.554,0.088-0.696,0.262c-0.145,0.174-0.215,0.445-0.215,0.813v0.83h1.802v1.547h-1.802
			V67.02h-2.1V53.798h-1.321v-1.547h1.321L105.596,51.503L105.596,51.503z"/>
		<path fill="#AB1917" d="M116.347,54.575c-0.124-0.432-0.185-0.945-0.185-1.547c0-1.307,0.24-2.34,0.722-3.109
			c0.481-0.766,1.4-1.147,2.76-1.147c1.747,0,2.777,0.84,3.093,2.52c0.136,0.728,0.204,1.635,0.204,2.734v1.063h-2.027V53.88
			c0-1.147-0.058-1.922-0.174-2.315c-0.117-0.396-0.26-0.656-0.432-0.787c-0.17-0.131-0.393-0.193-0.665-0.193
			c-0.513,0-0.881,0.189-1.106,0.564s-0.338,0.932-0.338,1.668c0,0.733,0.103,1.274,0.307,1.617
			c0.206,0.342,0.458,0.666,0.759,0.979c0.301,0.313,0.467,0.488,0.501,0.525l1.229,1.303c1.475,1.541,2.212,3.27,2.212,5.182
			c0,1.556-0.241,2.746-0.723,3.568c-0.482,0.82-1.397,1.234-2.749,1.234c-1.631,0-2.666-0.72-3.104-2.154
			c-0.252-0.805-0.379-1.857-0.379-3.162c0-0.035,0-0.068,0-0.102v-1.755h2.059v1.832c0,1.318,0.096,2.236,0.287,2.75
			c0.191,0.517,0.547,0.775,1.065,0.775s0.877-0.121,1.075-0.365c0.198-0.237,0.312-0.608,0.342-1.106
			c0.031-0.5,0.046-1.063,0.046-1.683c0-1.252-0.55-2.424-1.647-3.521l-1.179-1.178C117.251,56.475,116.599,55.483,116.347,54.575z"
			/>
		<path fill="#AB1917" d="M125.276,56.694c0-1.332,0.1-2.307,0.301-2.926c0.202-0.613,0.429-1.068,0.681-1.355
			c0.554-0.627,1.365-0.938,2.438-0.938c1.07,0,1.843,0.266,2.313,0.797c0.464,0.535,0.751,1.326,0.86,2.375
			c0.042,0.451,0.063,0.983,0.072,1.606v1.064h-2.068v-1.349c0-0.956-0.038-1.586-0.113-1.875c-0.272-0.438-0.6-0.715-0.981-0.821
			c-0.67,0-1.083,0.338-1.24,1.008c-0.102,0.42-0.154,1.006-0.154,1.748v6.533c0,1.049,0.081,1.787,0.241,2.207
			c0.16,0.418,0.47,0.629,0.927,0.629c0.457,0,0.792-0.148,1.004-0.447c0.21-0.295,0.317-1.078,0.317-2.346v-1.488h2.068v0.994
			c0,2.094-0.276,3.467-0.83,4.117c-0.554,0.646-1.396,0.973-2.528,0.973c-1.789,0-2.836-0.957-3.144-2.869
			c-0.109-0.699-0.163-1.533-0.163-2.498L125.276,56.694L125.276,56.694z"/>
		<path fill="#AB1917" d="M134.552,48.319h2.109v1.924h-2.109V48.319z M134.552,51.655h2.101v15.357h-2.101V51.655z"/>
		<path fill="#AB1917" d="M139.438,56.419c0-1.938,0.348-3.289,1.043-4.047c0.547-0.6,1.353-0.896,2.417-0.896
			c1.543,0,2.512,0.666,2.907,1.989c0.219,0.757,0.328,1.769,0.328,3.043v2.898h-4.588v3.063c0,1.33,0.106,2.16,0.318,2.488
			c0.212,0.324,0.546,0.488,1.004,0.488c0.457,0,0.763-0.188,0.916-0.572c0.154-0.379,0.234-0.797,0.24-1.244
			c0.007-0.444,0.011-0.823,0.011-1.133V61.26h2.058v0.656c0,1.629-0.113,2.771-0.342,3.431c-0.229,0.655-0.576,1.129-1.039,1.42
			c-0.465,0.291-1.04,0.434-1.727,0.434s-1.235-0.088-1.648-0.262c-0.413-0.172-0.741-0.402-0.982-0.689
			c-0.242-0.287-0.456-0.746-0.641-1.373c-0.184-0.629-0.275-1.639-0.275-3.026V56.419L139.438,56.419z M144.034,56.028
			c0-1.092-0.039-1.748-0.118-1.978c-0.078-0.225-0.179-0.424-0.302-0.596c-0.122-0.168-0.344-0.258-0.666-0.258
			c-0.614,0-1.002,0.258-1.167,0.775c-0.163,0.514-0.245,1.223-0.245,2.122v1.886h2.498V56.028z"/>
		<path fill="#AB1917" d="M150.915,53.286c0.137-0.502,0.437-0.928,0.896-1.285c0.461-0.356,1.034-0.539,1.72-0.539
			s1.243,0.277,1.669,0.834c0.427,0.558,0.641,1.381,0.641,2.476v12.246h-2.099V54.782c0-0.521-0.12-0.91-0.358-1.166
			c-0.238-0.262-0.57-0.393-0.994-0.393c-0.423,0-0.773,0.146-1.054,0.44c-0.28,0.291-0.42,0.732-0.42,1.316v12.03h-2.099V51.655
			h2.099L150.915,53.286L150.915,53.286z"/>
		<path fill="#AB1917" d="M158.513,56.694c0-1.332,0.101-2.307,0.302-2.926c0.201-0.613,0.429-1.068,0.681-1.355
			c0.553-0.627,1.365-0.938,2.438-0.938c1.071,0,1.844,0.266,2.313,0.797c0.465,0.535,0.751,1.326,0.861,2.375
			c0.041,0.451,0.063,0.983,0.07,1.606v1.064h-2.067v-1.349c0-0.956-0.038-1.586-0.113-1.875c-0.272-0.438-0.6-0.715-0.982-0.821
			c-0.67,0-1.083,0.338-1.239,1.008c-0.103,0.42-0.154,1.006-0.154,1.748v6.533c0,1.049,0.081,1.787,0.241,2.207
			c0.16,0.418,0.47,0.629,0.927,0.629s0.792-0.148,1.004-0.447c0.21-0.295,0.317-1.078,0.317-2.346v-1.488h2.067v0.994
			c0,2.094-0.275,3.467-0.83,4.117c-0.553,0.646-1.396,0.973-2.528,0.973c-1.789,0-2.836-0.957-3.145-2.869
			c-0.108-0.699-0.163-1.533-0.163-2.498V56.694L158.513,56.694z"/>
		<path fill="#AB1917" d="M167.525,56.419c0-1.938,0.347-3.289,1.043-4.047c0.547-0.6,1.353-0.896,2.417-0.896
			c1.543,0,2.512,0.666,2.908,1.989c0.218,0.757,0.327,1.769,0.327,3.043v2.898h-4.587v3.063c0,1.33,0.106,2.16,0.318,2.488
			c0.212,0.324,0.545,0.488,1.004,0.488c0.457,0,0.762-0.188,0.916-0.572c0.154-0.379,0.234-0.797,0.24-1.244
			c0.007-0.444,0.011-0.823,0.011-1.133V61.26h2.058v0.656c0,1.629-0.113,2.771-0.342,3.431c-0.229,0.655-0.576,1.129-1.04,1.42
			c-0.464,0.291-1.04,0.434-1.726,0.434c-0.688,0-1.235-0.088-1.648-0.262c-0.413-0.172-0.74-0.402-0.982-0.689
			c-0.242-0.287-0.456-0.746-0.641-1.373c-0.185-0.629-0.275-1.639-0.275-3.026L167.525,56.419L167.525,56.419z M172.122,56.028
			c0-1.092-0.039-1.748-0.118-1.978c-0.078-0.225-0.179-0.424-0.302-0.596c-0.122-0.168-0.344-0.258-0.666-0.258
			c-0.614,0-1.003,0.258-1.167,0.775c-0.163,0.514-0.246,1.223-0.246,2.122v1.886h2.499V56.028L172.122,56.028z"/>
		<path fill="#AB1917" d="M185.023,48.993h5.386v1.76h-3.266v6.168h3.092v1.765h-3.092v6.567h3.307v1.765h-5.427V48.993z"/>
		<path fill="#AB1917" d="M195.047,53.286c0.138-0.502,0.437-0.928,0.896-1.285c0.461-0.356,1.034-0.539,1.72-0.539
			c0.687,0,1.243,0.277,1.669,0.834c0.426,0.558,0.64,1.381,0.64,2.476v12.246h-2.099V54.782c0-0.521-0.12-0.91-0.358-1.166
			c-0.238-0.262-0.57-0.393-0.993-0.393c-0.424,0-0.774,0.146-1.055,0.44c-0.279,0.291-0.42,0.732-0.42,1.316v12.03h-2.099V51.655
			h2.099V53.286z"/>
		<path fill="#AB1917" d="M205.471,51.475c0.964,0,1.588,0.434,1.874,1.311v-1.129h2.1v13.928c0,1.828-0.688,2.998-2.068,3.515
			c-0.477,0.178-1.03,0.266-1.659,0.266c-1.255,0-2.297-0.328-3.123-0.98l0.758-1.438c0.743,0.506,1.532,0.76,2.364,0.76
			c0.554,0,0.962-0.174,1.229-0.521c0.267-0.351,0.398-0.814,0.398-1.402v-1.463c-0.185,0.477-0.439,0.811-0.768,0.99
			c-0.341,0.186-0.765,0.276-1.271,0.276c-1.023,0-1.726-0.436-2.107-1.303c-0.381-0.867-0.574-2.031-0.574-3.492v-4.399
			C202.624,53.106,203.573,51.475,205.471,51.475z M207.345,56.079c0-0.994-0.091-1.719-0.271-2.174
			c-0.181-0.455-0.499-0.684-0.953-0.684s-0.773,0.131-0.957,0.393c-0.185,0.256-0.301,0.58-0.353,0.969
			c-0.053,0.394-0.077,0.881-0.077,1.478v4.782c0,1.082,0.099,1.867,0.297,2.349c0.198,0.483,0.57,0.725,1.116,0.725
			c0.287,0,0.512-0.084,0.675-0.248c0.341-0.332,0.516-1.278,0.521-2.844L207.345,56.079L207.345,56.079z"/>
		<path fill="#AB1917" d="M212.423,48.319h2.109v1.924h-2.109V48.319z M212.423,51.655h2.101v15.357h-2.101V51.655z"/>
		<path fill="#AB1917" d="M219.643,53.286c0.137-0.502,0.436-0.928,0.896-1.285c0.461-0.356,1.034-0.539,1.72-0.539
			c0.688,0,1.243,0.277,1.669,0.834c0.428,0.558,0.642,1.381,0.642,2.476v12.246h-2.1V54.782c0-0.521-0.12-0.91-0.357-1.166
			c-0.239-0.262-0.571-0.393-0.995-0.393c-0.424,0-0.774,0.146-1.054,0.44c-0.28,0.291-0.42,0.732-0.42,1.316v12.03h-2.1V51.655h2.1
			L219.643,53.286L219.643,53.286z"/>
		<path fill="#AB1917" d="M227.24,56.419c0-1.938,0.348-3.289,1.043-4.047c0.547-0.6,1.353-0.896,2.417-0.896
			c1.543,0,2.512,0.666,2.908,1.989c0.218,0.757,0.328,1.769,0.328,3.043v2.898h-4.589v3.063c0,1.33,0.106,2.16,0.318,2.488
			c0.212,0.324,0.546,0.488,1.004,0.488c0.457,0,0.762-0.188,0.916-0.572c0.154-0.379,0.234-0.797,0.24-1.244
			c0.007-0.444,0.011-0.823,0.011-1.133V61.26h2.059v0.656c0,1.629-0.114,2.771-0.343,3.431c-0.229,0.655-0.575,1.129-1.039,1.42
			c-0.465,0.291-1.04,0.434-1.727,0.434s-1.235-0.088-1.648-0.262c-0.413-0.172-0.74-0.402-0.982-0.689
			c-0.242-0.287-0.456-0.746-0.641-1.373c-0.184-0.629-0.275-1.639-0.275-3.026V56.419L227.24,56.419z M231.838,56.028
			c0-1.092-0.039-1.748-0.118-1.978c-0.077-0.225-0.179-0.424-0.302-0.596c-0.122-0.168-0.344-0.258-0.666-0.258
			c-0.614,0-1.002,0.258-1.167,0.775c-0.163,0.514-0.246,1.223-0.246,2.122v1.886h2.499V56.028L231.838,56.028z"/>
		<path fill="#AB1917" d="M236.384,56.419c0-1.938,0.349-3.289,1.044-4.047c0.546-0.6,1.353-0.896,2.417-0.896
			c1.543,0,2.513,0.666,2.908,1.989c0.218,0.757,0.328,1.769,0.328,3.043v2.898h-4.588v3.063c0,1.33,0.105,2.16,0.318,2.488
			c0.211,0.324,0.545,0.488,1.003,0.488c0.457,0,0.763-0.188,0.917-0.572c0.153-0.379,0.232-0.797,0.239-1.244
			c0.008-0.444,0.011-0.823,0.011-1.133V61.26h2.058v0.656c0,1.629-0.114,2.771-0.342,3.431c-0.23,0.655-0.576,1.129-1.04,1.42
			c-0.464,0.291-1.04,0.434-1.727,0.434c-0.686,0-1.234-0.088-1.647-0.262c-0.413-0.172-0.74-0.402-0.982-0.689
			c-0.242-0.287-0.456-0.746-0.641-1.373c-0.185-0.629-0.276-1.639-0.276-3.026V56.419L236.384,56.419z M240.981,56.028
			c0-1.092-0.039-1.748-0.118-1.978c-0.078-0.225-0.179-0.424-0.303-0.596c-0.122-0.168-0.345-0.258-0.666-0.258
			c-0.614,0-1.002,0.258-1.167,0.775c-0.163,0.514-0.245,1.223-0.245,2.122v1.886h2.498L240.981,56.028L240.981,56.028z"/>
		<path fill="#AB1917" d="M250.483,51.475c0.026,0,0.041,0.44,0.041,1.332l-0.01,0.442c-1.229,0-2.109,0.433-2.643,1.281V67.01
			h-2.109V51.655h2.109v1.711c0.178-0.6,0.49-1.066,0.938-1.4C249.256,51.639,249.814,51.475,250.483,51.475z"/>
		<path fill="#AB1917" d="M252.459,48.319h2.109v1.924h-2.109V48.319z M252.459,51.655h2.101v15.357h-2.101V51.655z"/>
		<path fill="#AB1917" d="M259.677,53.286c0.138-0.502,0.438-0.928,0.896-1.285c0.461-0.356,1.034-0.539,1.72-0.539
			c0.688,0,1.243,0.277,1.669,0.834c0.427,0.558,0.641,1.381,0.641,2.476v12.246h-2.1V54.782c0-0.521-0.12-0.91-0.357-1.166
			c-0.239-0.262-0.571-0.393-0.994-0.393c-0.423,0-0.774,0.146-1.055,0.44c-0.279,0.291-0.42,0.732-0.42,1.316v12.03h-2.099V51.655
			h2.099V53.286L259.677,53.286z"/>
		<path fill="#AB1917" d="M270.103,51.475c0.962,0,1.587,0.434,1.874,1.311v-1.129h2.099v13.928c0,1.828-0.688,2.998-2.067,3.515
			c-0.479,0.178-1.029,0.266-1.66,0.266c-1.255,0-2.297-0.328-3.122-0.98l0.757-1.438c0.745,0.506,1.532,0.76,2.364,0.76
			c0.554,0,0.964-0.174,1.229-0.521c0.266-0.351,0.399-0.814,0.399-1.402v-1.463c-0.186,0.477-0.44,0.811-0.77,0.99
			c-0.341,0.186-0.764,0.276-1.27,0.276c-1.023,0-1.727-0.436-2.108-1.303s-0.574-2.031-0.574-3.492v-4.399
			C267.255,53.106,268.204,51.475,270.103,51.475z M271.976,56.079c0-0.994-0.091-1.719-0.271-2.174
			c-0.18-0.455-0.5-0.684-0.952-0.684c-0.455,0-0.773,0.131-0.959,0.393c-0.185,0.256-0.301,0.58-0.353,0.969
			c-0.052,0.394-0.077,0.881-0.077,1.478v4.782c0,1.082,0.099,1.867,0.297,2.349c0.198,0.483,0.57,0.725,1.116,0.725
			c0.287,0,0.512-0.084,0.675-0.248c0.341-0.332,0.516-1.278,0.522-2.844V56.08L271.976,56.079L271.976,56.079z"/>
		<path fill="#AB1917" d="M282.153,56.1c0-1.857,0.29-3.095,0.87-3.707c0.58-0.615,1.406-0.918,2.478-0.918
			c1.072,0,1.851,0.258,2.33,0.772c0.481,0.521,0.776,1.354,0.886,2.498c0.049,0.492,0.072,1.096,0.072,1.814v10.45h-2.107v-1.329
			c-0.11,0.37-0.35,0.707-0.718,1.012c-0.367,0.303-0.825,0.453-1.372,0.453c-1.74,0-2.617-1.359-2.633-4.076v-1.49
			c0-0.881,0.241-1.635,0.724-2.26c0.479-0.627,1.812-1.34,3.986-2.137v-1.188c0-1.318-0.095-2.109-0.286-2.377
			c-0.189-0.266-0.518-0.397-0.978-0.397c-0.461,0-0.771,0.2-0.927,0.604c-0.157,0.4-0.236,1.129-0.236,2.178v0.535h-2.088
			L282.153,56.1L282.153,56.1z M286.668,58.548c-0.857,0.39-1.434,0.689-1.72,0.9c-0.287,0.211-0.503,0.459-0.649,0.74
			c-0.146,0.283-0.221,0.75-0.221,1.397v1.424c0,0.896,0.078,1.525,0.235,1.89c0.157,0.365,0.427,0.549,0.809,0.549
			s0.71-0.109,0.983-0.334c0.271-0.219,0.46-0.459,0.563-0.721V58.548L286.668,58.548z"/>
		<path fill="#AB1917" d="M293.754,53.286c0.139-0.502,0.438-0.928,0.896-1.285c0.461-0.356,1.034-0.539,1.72-0.539
			c0.688,0,1.243,0.277,1.669,0.834c0.428,0.558,0.643,1.381,0.643,2.476v12.246h-2.101V54.782c0-0.521-0.12-0.91-0.356-1.166
			c-0.239-0.262-0.571-0.393-0.995-0.393s-0.774,0.146-1.056,0.44c-0.278,0.291-0.42,0.732-0.42,1.316v12.03h-2.099V51.655h2.099
			V53.286z"/>
		<path fill="#AB1917" d="M306.083,48.798h2.108v18.22h-2.108v-1.289c-0.382,0.944-1.088,1.424-2.118,1.424
			c-1.414,0-2.241-0.935-2.488-2.797c-0.082-0.619-0.122-1.369-0.122-2.25v-5.812c0-1.85,0.3-3.153,0.898-3.922
			c0.479-0.6,1.154-0.896,2.027-0.896c0.382,0,0.736,0.106,1.062,0.338c0.322,0.223,0.57,0.514,0.741,0.867V48.798L306.083,48.798z
			 M306.094,56.266c0-1.08-0.092-1.855-0.271-2.326c-0.181-0.476-0.53-0.703-1.045-0.703c-0.516,0-0.863,0.234-1.045,0.711
			c-0.182,0.473-0.271,1.264-0.271,2.367v6.207c0,1.504,0.198,2.408,0.596,2.725c0.165,0.131,0.396,0.193,0.695,0.193
			c0.301,0,0.547-0.084,0.737-0.244c0.402-0.342,0.604-1.264,0.604-2.771V56.266L306.094,56.266z"/>
		<path fill="#AB1917" d="M315.124,48.993h5.949v1.76h-1.854v16.265h-2.108V50.753h-1.986L315.124,48.993L315.124,48.993z"/>
		<path fill="#AB1917" d="M322.63,56.419c0-1.938,0.351-3.289,1.044-4.047c0.548-0.6,1.354-0.896,2.418-0.896
			c1.544,0,2.514,0.666,2.907,1.989c0.218,0.757,0.328,1.769,0.328,3.043v2.898h-4.588v3.063c0,1.33,0.105,2.16,0.317,2.488
			c0.211,0.324,0.545,0.488,1.003,0.488c0.457,0,0.764-0.188,0.917-0.572c0.151-0.379,0.231-0.797,0.239-1.244
			c0.008-0.444,0.013-0.823,0.013-1.133V61.26h2.058v0.656c0,1.629-0.114,2.771-0.342,3.431c-0.23,0.655-0.576,1.129-1.04,1.42
			c-0.465,0.291-1.04,0.434-1.728,0.434s-1.234-0.088-1.647-0.262c-0.413-0.172-0.74-0.402-0.983-0.689
			c-0.24-0.287-0.456-0.746-0.64-1.373c-0.185-0.629-0.276-1.639-0.276-3.026V56.419L322.63,56.419z M327.229,56.028
			c0-1.092-0.039-1.748-0.118-1.978c-0.078-0.225-0.18-0.424-0.303-0.596c-0.122-0.168-0.346-0.258-0.666-0.258
			c-0.613,0-1.002,0.258-1.167,0.775c-0.162,0.514-0.244,1.223-0.244,2.122v1.886h2.498V56.028z"/>
		<path fill="#AB1917" d="M331.774,56.694c0-1.332,0.1-2.307,0.301-2.926c0.202-0.613,0.429-1.068,0.683-1.355
			c0.555-0.627,1.364-0.938,2.438-0.938c1.07,0,1.843,0.266,2.313,0.797c0.466,0.535,0.75,1.326,0.86,2.375
			c0.041,0.451,0.063,0.983,0.072,1.606v1.064h-2.069v-1.349c0-0.956-0.038-1.586-0.113-1.875c-0.271-0.438-0.6-0.715-0.979-0.821
			c-0.67,0-1.083,0.338-1.24,1.008c-0.103,0.42-0.152,1.006-0.152,1.748v6.533c0,1.049,0.082,1.787,0.239,2.207
			c0.16,0.418,0.472,0.629,0.929,0.629s0.791-0.148,1.004-0.447c0.211-0.295,0.315-1.078,0.315-2.346v-1.488h2.069v0.994
			c0,2.094-0.276,3.467-0.83,4.117c-0.554,0.646-1.396,0.973-2.529,0.973c-1.788,0-2.836-0.957-3.145-2.869
			c-0.109-0.699-0.163-1.533-0.163-2.498v-5.14H331.774z"/>
		<path fill="#AB1917" d="M341.021,48.798h2.099v4.488c0.145-0.502,0.439-0.928,0.893-1.285c0.449-0.356,1.021-0.539,1.705-0.539
			c0.688,0,1.243,0.277,1.675,0.834c0.431,0.558,0.646,1.381,0.646,2.476v12.246h-2.099v-12.07c0-1.115-0.421-1.672-1.26-1.672
			c-0.458,0-0.831,0.164-1.121,0.485c-0.291,0.324-0.438,0.808-0.438,1.439v11.816h-2.1V48.798L341.021,48.798z"/>
		<path fill="#AB1917" d="M353.041,53.286c0.139-0.502,0.438-0.928,0.896-1.285c0.461-0.356,1.034-0.539,1.72-0.539
			c0.688,0,1.243,0.277,1.669,0.834c0.426,0.558,0.641,1.381,0.641,2.476v12.246h-2.1V54.782c0-0.521-0.12-0.91-0.356-1.166
			c-0.239-0.262-0.571-0.393-0.994-0.393s-0.773,0.146-1.056,0.44c-0.278,0.291-0.42,0.732-0.42,1.316v12.03h-2.099V51.655h2.099
			V53.286L353.041,53.286z"/>
		<path fill="#AB1917" d="M360.64,56.499c0-2.488,0.571-4.043,1.721-4.658c0.464-0.241,1.004-0.364,1.618-0.364
			c1.604,0,2.629,0.645,3.07,1.934c0.272,0.814,0.409,1.842,0.409,3.092v5.439c0,2.156-0.291,3.572-0.871,4.246
			c-0.579,0.678-1.419,1.016-2.518,1.016c-1.604,0-2.625-0.684-3.063-2.047c-0.245-0.785-0.367-1.859-0.367-3.215L360.64,56.499
			L360.64,56.499z M365.35,56.079c0-1.459-0.208-2.348-0.625-2.664c-0.171-0.125-0.395-0.19-0.666-0.19
			c-0.555,0-0.909,0.248-1.069,0.75c-0.16,0.498-0.241,1.198-0.241,2.104v6.439c0,1.51,0.212,2.422,0.636,2.731
			c0.171,0.133,0.383,0.195,0.636,0.195c0.015,0,0.025,0,0.043,0c0.538,0,0.889-0.254,1.05-0.764
			c0.159-0.509,0.239-1.23,0.239-2.164L365.35,56.079L365.35,56.079z"/>
		<path fill="#AB1917" d="M370.243,48.798h2.099v18.22h-2.099V48.798z"/>
		<path fill="#AB1917" d="M375.128,56.499c0-2.488,0.573-4.043,1.722-4.658c0.465-0.241,1.004-0.364,1.618-0.364
			c1.604,0,2.629,0.645,3.07,1.934c0.271,0.814,0.41,1.842,0.41,3.092v5.439c0,2.156-0.291,3.572-0.871,4.246
			c-0.58,0.678-1.42,1.016-2.519,1.016c-1.604,0-2.625-0.684-3.063-2.047c-0.247-0.785-0.369-1.859-0.369-3.215L375.128,56.499
			L375.128,56.499z M379.838,56.079c0-1.459-0.209-2.348-0.625-2.664c-0.17-0.125-0.393-0.19-0.666-0.19
			c-0.553,0-0.908,0.248-1.068,0.75c-0.159,0.498-0.24,1.198-0.24,2.104v6.439c0,1.51,0.212,2.422,0.635,2.731
			c0.171,0.133,0.384,0.195,0.636,0.195c0.016,0,0.026,0,0.041,0c0.539,0,0.891-0.254,1.051-0.764
			c0.16-0.509,0.238-1.23,0.238-2.164L379.838,56.079L379.838,56.079z"/>
		<path fill="#AB1917" d="M387.313,51.475c0.963,0,1.588,0.434,1.875,1.311v-1.129h2.099v13.928c0,1.828-0.688,2.998-2.068,3.515
			c-0.477,0.178-1.028,0.266-1.657,0.266c-1.255,0-2.297-0.328-3.123-0.98l0.758-1.438c0.744,0.506,1.533,0.76,2.365,0.76
			c0.554,0,0.963-0.174,1.229-0.521c0.268-0.351,0.399-0.814,0.399-1.402v-1.463c-0.187,0.477-0.44,0.811-0.771,0.99
			c-0.341,0.186-0.765,0.276-1.27,0.276c-1.024,0-1.729-0.436-2.109-1.303s-0.574-2.031-0.574-3.492v-4.399
			C384.467,53.106,385.414,51.475,387.313,51.475z M389.188,56.079c0-0.994-0.091-1.719-0.271-2.174s-0.499-0.684-0.953-0.684
			s-0.771,0.131-0.958,0.393c-0.184,0.256-0.301,0.58-0.353,0.969c-0.053,0.394-0.077,0.881-0.077,1.478v4.782
			c0,1.082,0.1,1.867,0.297,2.349c0.198,0.483,0.569,0.725,1.116,0.725c0.286,0,0.512-0.084,0.675-0.248
			c0.341-0.332,0.518-1.278,0.521-2.844V56.08L389.188,56.079L389.188,56.079z"/>
		<path fill="#AB1917" d="M398.442,51.655h2.027l-2.552,15.658c-0.122,0.852-0.277,1.405-0.471,1.668
			c-0.188,0.258-0.402,0.426-0.635,0.496c-0.233,0.069-0.536,0.104-0.911,0.104h-2.059v-1.584h0.728
			c0.717,0,1.111-0.084,1.188-0.248c0.063-0.076,0.092-0.219,0.092-0.438c0-0.222-0.026-0.502-0.081-0.843l-2.508-14.815h2.036
			l1.105,7.986l0.45,4.155h0.185l0.398-4.155L398.442,51.655z"/>
		<g>
			<path fill="#AB1917" d="M176.351,66.284v-2.211h2.211v2.211c0,0.813-0.144,1.469-0.432,1.968c-0.288,0.5-0.745,0.888-1.37,1.16
				l-0.54-0.83c0.41-0.181,0.711-0.443,0.906-0.793c0.194-0.35,0.302-0.851,0.324-1.505H176.351z"/>
		</g>
	</g>
	<g>
		<path fill="#231F20" d="M19.854,40.036V6.331h6.308v33.705H19.854z"/>
		<path fill="#231F20" d="M54.28,6.282h6.355v33.754h-3.947v0.048l-17.72-22.772v22.727h-6.355V6.332h5.151L54.28,27.23V6.282z"/>
		<path fill="#231F20" d="M75.177,12.109H64.488V6.331c9.726,0,17.96,0,27.733,0v5.777H81.533v27.928h-6.356V12.109z"/>
		<path fill="#231F20" d="M121.209,40.036h-25.23c0-11.219,0-22.486,0-33.705h25.229v6.163h-18.922v7.752h18.249v5.923h-18.249
			v7.605h18.922L121.209,40.036L121.209,40.036z"/>
		<path fill="#231F20" d="M156.023,40.036h-7.561l-9.823-11.268h-6.114v11.268h-6.356V6.282c5.345,0,10.69,0.049,16.034,0.049
			c7.945,0.048,12.134,5.345,12.134,11.171c0,4.622-2.118,9.292-8.521,10.595l10.208,11.507L156.023,40.036L156.023,40.036z
			 M132.525,12.253v10.785h9.678c4.045,0,5.779-2.695,5.779-5.392c0-2.697-1.782-5.396-5.779-5.396L132.525,12.253L132.525,12.253z"
			/>
		<path fill="#231F20" d="M180.771,6.282h6.355v33.754h-3.948v0.048l-17.72-22.772v22.727h-6.355V6.332h5.151l16.517,20.897V6.282z"
			/>
		<path fill="#231F20" d="M216.884,33.682h-17.623l-2.889,6.354h-6.886l15.119-33.705h6.935l15.118,33.705h-6.933L216.884,33.682z
			 M208.073,13.409l-6.26,14.349h12.52L208.073,13.409z"/>
		<path fill="#231F20" d="M232.728,12.109H222.04V6.331c9.728,0,17.96,0,27.734,0v5.777h-10.69v27.928h-6.355L232.728,12.109
			L232.728,12.109z"/>
		<path fill="#231F20" d="M253.673,40.036V6.331h6.309v33.705H253.673z"/>
		<path fill="#231F20" d="M300.09,23.376c-0.097,8.715-5.439,17.434-17.284,17.434c-11.847,0-17.335-8.523-17.335-17.386
			c0-8.858,5.683-17.767,17.335-17.767C294.407,5.657,300.186,14.565,300.09,23.376z M271.729,23.52
			c0.146,5.538,3.13,11.46,11.075,11.46c7.942,0,10.93-5.973,11.024-11.507c0.098-5.685-3.082-12.038-11.024-12.038
			C274.859,11.435,271.584,17.839,271.729,23.52z"/>
		<path fill="#231F20" d="M326.908,6.282h6.355v33.754h-3.949v0.048l-17.72-22.772v22.727h-6.355V6.332h5.151l16.517,20.897
			L326.908,6.282L326.908,6.282z"/>
		<path fill="#231F20" d="M363.021,33.682h-17.623l-2.89,6.354h-6.888l15.12-33.705h6.936l15.116,33.705h-6.933L363.021,33.682z
			 M354.21,13.409l-6.26,14.349h12.521L354.21,13.409z"/>
		<path fill="#231F20" d="M382.523,6.331v27.83h17.334v5.875h-23.69V6.331H382.523z"/>
	</g>
	<path fill="#AB1917" d="M597.916,2.669H442.947c-7.12,0-12.912,5.797-12.912,12.916l0.01,34.458
		c-1.586,12.431-10.898,22.49-22.894,25.013H15.349L0,78.477h597.916c7.12,0,12.912-5.797,12.912-12.916V15.585
		C610.828,8.466,605.036,2.669,597.916,2.669z M472.991,60.028h-10.238V48.083l-11.942,11.945h-15.357l37.54-37.541L472.991,60.028
		L472.991,60.028z M515.65,32.727H488.35v3.412h27.302v23.889h-37.54V49.79h27.302v-3.412H478.11V22.489h37.54V32.727L515.65,32.727
		z M558.309,32.727h-27.304v3.412h27.304v10.236h-27.304v3.412h27.304v10.238H520.77v-37.54h37.539V32.727z M600.967,32.727h-13.648
		v27.301h-10.239V32.727H563.43V22.488h37.54L600.967,32.727L600.967,32.727z"/>
</g>
<rect x="1542.461" y="0" fill="#F1F2F2" width="360" height="360"/>
</svg>
